<?xml version="1.0" encoding="utf-8"?>
<!-- Generator: Adobe Illustrator 23.0.2, SVG Export Plug-In . SVG Version: 6.00 Build 0)  -->
<svg version="1.1" id="Layer_1" xmlns="http://www.w3.org/2000/svg" xmlns:xlink="http://www.w3.org/1999/xlink" x="0px" y="0px"
	 viewBox="0 0 309.79 320.39" style="enable-background:new 0 0 309.79 320.39;" xml:space="preserve">
<style type="text/css">
	.st0{fill:#FFFF00;}
	.st1{fill:none;stroke:#000000;stroke-width:11;stroke-miterlimit:10;}
	.st2{fill:#006837;}
	.st3{fill:#6CC24A;}
	.st4{fill:#699C0A;}
	.st5{fill:#FFFFFF;}
	.st6{fill:#39B54A;}
	.st7{fill:#128C7E;}
	.st8{fill:#0B1B28;}
	.st9{fill:#FEFFFF;}
	.st10{enable-background:new    ;}
	.st11{clip-path:url(#SVGID_2_);enable-background:new    ;}
	.st12{clip-path:url(#SVGID_4_);enable-background:new    ;}
	.st13{fill:#8C8C8C;}
	.st14{fill:#898989;}
	.st15{fill:#858585;}
	.st16{fill:#828282;}
	.st17{fill:#7E7E7E;}
	.st18{fill:#7A7A7A;}
	.st19{fill:#777777;}
	.st20{fill:#727272;}
	.st21{fill:#6E6E6E;}
	.st22{fill:#6A6A6A;}
	.st23{fill:#656565;}
	.st24{fill:#616161;}
	.st25{fill:#5C5C5C;}
	.st26{fill:#575757;}
	.st27{fill:#515151;}
	.st28{fill:#4B4B4B;}
	.st29{fill:#444444;}
	.st30{fill:#3D3D3D;}
	.st31{fill:#353535;}
	.st32{fill:#2B2B2B;}
	.st33{fill:#1F1F1F;}
	.st34{clip-path:url(#SVGID_6_);enable-background:new    ;}
	.st35{clip-path:url(#SVGID_8_);enable-background:new    ;}
	.st36{clip-path:url(#SVGID_10_);enable-background:new    ;}
	.st37{clip-path:url(#SVGID_12_);enable-background:new    ;}
	.st38{clip-path:url(#SVGID_14_);enable-background:new    ;}
	.st39{fill:#0C0C0C;}
	.st40{clip-path:url(#SVGID_16_);enable-background:new    ;}
	.st41{clip-path:url(#SVGID_18_);enable-background:new    ;}
	.st42{fill:#00E5BE;}
	.st43{clip-path:url(#SVGID_20_);enable-background:new    ;}
	.st44{fill:#2E9A8D;}
	.st45{fill:#12897B;}
	.st46{fill:#118679;}
	.st47{fill:#118476;}
	.st48{fill:#118174;}
	.st49{fill:#107E71;}
	.st50{fill:#107B6F;}
	.st51{fill:#0F786C;}
	.st52{fill:#0F766A;}
	.st53{fill:#0F7367;}
	.st54{fill:#0E7065;}
	.st55{fill:#0E6D62;}
	.st56{fill:#0E6A60;}
	.st57{fill:#0D685D;}
	.st58{fill:#0D655B;}
	.st59{fill:#0D6258;}
	.st60{fill:#0C5F56;}
	.st61{fill:#0C5C53;}
	.st62{fill:#0C5A51;}
	.st63{fill:#0B574E;}
	.st64{fill:#0B544C;}
	.st65{fill:#0A5149;}
	.st66{fill:#0A4E47;}
	.st67{fill:#0A4C44;}
	.st68{fill:#094942;}
	.st69{clip-path:url(#SVGID_22_);enable-background:new    ;}
	.st70{clip-path:url(#SVGID_24_);enable-background:new    ;}
	.st71{fill:#3AA094;}
	.st72{fill:#43A499;}
	.st73{fill:#4BA89D;}
	.st74{fill:#52ABA1;}
	.st75{fill:#58AEA4;}
	.st76{fill:#5DB1A7;}
	.st77{fill:#62B3AA;}
	.st78{fill:#67B5AC;}
	.st79{fill:#6CB8AF;}
	.st80{fill:#70BAB1;}
	.st81{fill:#75BCB4;}
	.st82{fill:#79BEB6;}
	.st83{fill:#7CC0B8;}
	.st84{fill:#80C1BA;}
	.st85{fill:#84C3BC;}
	.st86{fill:#87C5BE;}
	.st87{fill:#8BC7C0;}
	.st88{fill:#8EC8C1;}
	.st89{fill:#91CAC3;}
	.st90{fill:#94CBC5;}
	.st91{clip-path:url(#SVGID_26_);enable-background:new    ;}
	.st92{clip-path:url(#SVGID_28_);enable-background:new    ;}
	.st93{clip-path:url(#SVGID_30_);enable-background:new    ;}
	.st94{clip-path:url(#SVGID_32_);enable-background:new    ;}
	.st95{clip-path:url(#SVGID_34_);enable-background:new    ;}
	.st96{fill:#10796D;}
	.st97{clip-path:url(#SVGID_36_);enable-background:new    ;}
	.st98{clip-path:url(#SVGID_38_);enable-background:new    ;}
	.st99{clip-path:url(#SVGID_40_);enable-background:new    ;}
	.st100{clip-path:url(#SVGID_42_);enable-background:new    ;}
	.st101{clip-path:url(#SVGID_44_);enable-background:new    ;}
	.st102{clip-path:url(#SVGID_46_);enable-background:new    ;}
	.st103{clip-path:url(#SVGID_48_);enable-background:new    ;}
	.st104{clip-path:url(#SVGID_50_);enable-background:new    ;}
	.st105{clip-path:url(#SVGID_52_);enable-background:new    ;}
	.st106{clip-path:url(#SVGID_54_);enable-background:new    ;}
	.st107{clip-path:url(#SVGID_56_);enable-background:new    ;}
	.st108{clip-path:url(#SVGID_58_);enable-background:new    ;}
	.st109{clip-path:url(#SVGID_60_);enable-background:new    ;}
	.st110{clip-path:url(#SVGID_62_);enable-background:new    ;}
	.st111{clip-path:url(#SVGID_64_);enable-background:new    ;}
	.st112{clip-path:url(#SVGID_66_);enable-background:new    ;}
	.st113{clip-path:url(#SVGID_68_);enable-background:new    ;}
	.st114{clip-path:url(#SVGID_70_);enable-background:new    ;}
	.st115{clip-path:url(#SVGID_72_);enable-background:new    ;}
	.st116{clip-path:url(#SVGID_74_);enable-background:new    ;}
	.st117{clip-path:url(#SVGID_76_);enable-background:new    ;}
	.st118{clip-path:url(#SVGID_78_);enable-background:new    ;}
</style>
<g>
	<path class="st0" d="M259.26,313.99H53.63c-27.91,0-50.53-22.62-50.53-50.53V57.83C3.09,29.92,25.72,7.3,53.63,7.3h205.63
		c27.91,0,50.53,22.62,50.53,50.53v205.63C309.79,291.37,287.16,313.99,259.26,313.99z"/>
	<g>
		<path class="st5" d="M266.4,0H43.39C19.48,0,0,21.88,0,48.77v222.85c0,26.89,19.48,48.77,43.39,48.77H266.4
			c23.91,0,43.39-21.88,43.39-48.77V48.77C309.79,21.88,290.31,0,266.4,0z M301.05,271.62c0,21.49-15.54,38.97-34.65,38.97H43.39
			c-19.11,0-34.65-17.48-34.65-38.97V48.77C8.74,27.28,24.28,9.8,43.39,9.8H266.4c19.11,0,34.65,17.48,34.65,38.97V271.62z"/>
	</g>
	<g>
		<g>
			<g>
				<path class="st7" d="M140.4,68.85l-63.21,39.91L64.31,88.02l-31.32,74.2l119.07-74.6c21.85-13.57,50.67-6.83,64.25,15.02
					l34.63,55.77l18.77-11.66l-34.63-55.77C215.08,58.78,172.61,48.85,140.4,68.85z"/>
			</g>
		</g>
		<g>
			<g>
				<path d="M169.39,251.54l63.21-39.91l12.88,20.74l31.32-74.2l-119.07,74.6c-21.85,13.57-50.67,6.83-64.25-15.02l-34.63-55.77
					l-18.77,11.66l34.63,55.77C94.71,261.61,137.18,271.54,169.39,251.54z"/>
			</g>
		</g>
	</g>
</g>
</svg>
